<svg xmlns="http://www.w3.org/2000/svg" viewBox="0 0 512.001 512.001"><path d="M169.825 180.112a7.5 7.5 0 00-7.5 7.5v15.596a7.5 7.5 0 0015 0v-15.596a7.5 7.5 0 00-7.5-7.5zm172.351 0a7.5 7.5 0 00-7.5 7.5v15.596a7.5 7.5 0 0015 0v-15.596a7.5 7.5 0 00-7.5-7.5zm-59.97 16.364a7.5 7.5 0 00-10.583.71c-3.803 4.351-9.497 6.846-15.622 6.846s-11.819-2.496-15.623-6.847a7.5 7.5 0 00-10.583-.71 7.499 7.499 0 00-.71 10.583c6.651 7.611 16.461 11.975 26.916 11.975 10.454 0 20.264-4.364 26.916-11.974a7.5 7.5 0 00-.711-10.583z"/><path d="M477.401 206.828c0-14.466-11.769-26.235-26.235-26.235-.292 0-.58.013-.869.022-8.271-21.283-19.964-40.214-34.846-56.422a26.063 26.063 0 002.799-11.771c0-14.466-11.769-26.235-26.235-26.235a26.098 26.098 0 00-16.293 5.696c-24.239-14.576-53.037-24.389-83.897-28.605-5.879-12.115-17.725-20.818-31.695-22.266 1.841-12.503 7.144-21.638 15.847-27.188a7.5 7.5 0 00-8.065-12.647c-13.258 8.456-21.145 22.642-23.05 41.219C234 45.569 225.043 53.25 220.176 63.277c-30.86 4.217-59.658 14.029-83.897 28.605a26.098 26.098 0 00-16.293-5.696c-14.466 0-26.235 11.769-26.235 26.235 0 4.231 1.013 8.228 2.799 11.771-14.882 16.208-26.575 35.14-34.846 56.422-.289-.008-.577-.021-.869-.021-14.466 0-26.235 11.769-26.235 26.235 0 10.275 5.94 19.185 14.565 23.487a264.523 264.523 0 00-2.139 25.705 48.49 48.49 0 0010.255 31.6l27.887 174.902c4.571 28.67 28.961 49.479 57.993 49.479h225.678c29.032 0 53.421-20.809 57.993-49.479l27.887-174.901a48.496 48.496 0 0010.254-31.601 264.212 264.212 0 00-2.138-25.705c8.625-4.303 14.566-13.212 14.566-23.487zm-85.385-105.641c6.195 0 11.235 5.04 11.235 11.235 0 6.047-5.126 11.22-11.235 11.235-6.195 0-11.235-5.04-11.235-11.235 0-6.055 5.176-11.235 11.235-11.235zM256.001 55.798c13.262 0 24.784 11.547 24.794 24.795 0 13.671-11.123 24.794-24.794 24.794-13.671 0-24.794-11.123-24.795-24.794 0-13.383 11.402-24.795 24.795-24.795zm-136.016 45.389c6.036 0 11.235 5.188 11.235 11.235 0 6.045-5.182 11.235-11.235 11.235-6.06 0-11.235-5.168-11.235-11.235 0-6.195 5.04-11.235 11.235-11.235zM49.6 206.828c0-6.195 5.04-11.235 11.235-11.235 6.025 0 11.235 5.2 11.235 11.235 0 6.041-5.184 11.235-11.235 11.235-6.117 0-11.235-5.122-11.235-11.235zm93.562 290.174c-21.617-.001-39.777-15.495-43.18-36.842L74.694 301.562a46.662 46.662 0 0015.706 4.244c3.453.308 6.9.213 10.34-.194.037-.004.074-.012.111-.016a48.647 48.647 0 0015.843-4.843l29.036 195.563.102.686h-2.67zm81.374-.001l-14.007-138.284a7.5 7.5 0 10-14.924 1.512l13.854 136.772h-48.462l-30.658-206.49a48.727 48.727 0 004.702-5.857 49.065 49.065 0 001.744 2.344c9.145 11.715 23.662 18.998 38.557 18.998 4.917 0 9.85-.752 14.544-2.217l2.741 27.059a7.5 7.5 0 0014.924-1.512l-3.323-32.806a49.127 49.127 0 0011.458-11.885 48.78 48.78 0 003.145 4.072c9.205 10.768 22.968 17.289 37.17 17.289 15.19 0 30.115-7.65 39.175-19.805.384-.515.775-1.025 1.14-1.556a49.145 49.145 0 0011.458 11.885l-20.308 200.481h-62.93zm187.483-36.841c-3.403 21.347-21.563 36.841-43.18 36.841h-2.67l6.803-45.82a7.501 7.501 0 00-14.837-2.204L351.005 497h-48.462l19.573-193.223c-.136 1.345 13.326 2.217 14.544 2.217 15.907 0 31.308-8.254 40.301-21.342a48.815 48.815 0 004.703 5.857l-19.127 128.827c-.596 4.016 2.311 7.925 6.317 8.521 4.04.601 7.922-2.29 8.52-6.317l17.933-120.789a48.645 48.645 0 0015.84 4.843l.116.017c8.82 1.102 17.944-.25 26.045-4.05L412.019 460.16zm5.298-169.164c-15.053 0-30.03-11.235-32.968-26.292-.618-3.166-3.338-5.665-6.547-6.015-3.746-.408-7.324 2.157-8.138 5.837-3.353 15.164-17.498 26.469-33.007 26.469-12.712 0-24.751-7.535-30.351-18.941-2.387-4.862-2.463-12.902-9.439-13.382a7.49 7.49 0 00-7.861 5.854c-3.389 15.337-17.271 26.469-33.007 26.469s-29.618-11.132-33.007-26.469c-.792-3.572-4.175-6.102-7.827-5.852-3.164.208-5.892 2.47-6.718 5.531-4.073 15.1-17.099 26.791-33.107 26.791-15.736 0-29.618-11.132-33.008-26.469-1.673-7.57-13.132-7.483-14.677.146-3.073 15.172-17.694 26.323-32.975 26.323-18.471 0-33.299-16.208-32.665-34.454a249.53 249.53 0 011.932-23.663c.011-.049 1.385-.206 1.77-.279 13.003-2.473 22.346-14.798 21.252-27.984a23.867 23.867 0 00-.074-.756c-.84-7.392-4.863-14.221-10.958-18.494 7.441-18.91 17.814-35.761 30.926-50.241a26.256 26.256 0 0013.122 3.532c9.589 0 18.599-5.423 23.13-13.868 3.345-6.234 4.024-13.755 1.815-20.48-.012-.036-.02-.073-.032-.108 20.752-12.312 45.127-20.914 71.338-25.187a39.441 39.441 0 00-.031 1.578c0 21.943 17.852 39.794 39.795 39.794 21.942 0 39.795-17.852 39.795-39.794 0-.527-.011-1.053-.031-1.578 26.209 4.273 50.588 12.875 71.337 25.187-.012.035-.02.072-.031.107-2.795 8.874-.741 18.843 5.533 25.744 8.172 8.989 22.026 11.169 32.533 5.073 13.112 14.479 23.485 31.33 30.925 50.241a26.109 26.109 0 00-10.497 15.749 26.462 26.462 0 00-.634 5.713c0 9.359 5.292 18.316 13.445 22.894a26.054 26.054 0 009.675 3.157 249.836 249.836 0 011.931 23.663c.625 17.979-14.514 34.454-32.664 34.454zm34.829-72.983c-6.467.628-12.214-4.732-12.214-11.186 0-6.087 5.145-11.234 11.235-11.234 6.194 0 11.234 5.04 11.234 11.235 0 5.75-4.577 10.634-10.255 11.185z"/></svg>