<svg height="512" viewBox="0 0 64 64" width="512" xmlns="http://www.w3.org/2000/svg"><g data-name="Layer 9"><circle cx="32" cy="32" fill="#a0a8b2" r="22"/><circle cx="32" cy="32" fill="#c7e2fb" r="18"/><path d="M45 19.57A18 18 0 1019.56 45 25.74 25.74 0 0045 19.57z" fill="#ebf7fe"/><path d="M51.6 8H54V6h-5a1 1 0 00-1 1v5h2V9.28a29 29 0 01-31.53 48.38l-.94 1.76A31 31 0 0051.6 8zM32 1a31 31 0 00-19.6 55H10v2h5a1 1 0 001-1v-5h-2v2.73A29 29 0 0145.53 6.34l.94-1.76A31.08 31.08 0 0032 1z" fill="#4472b0"/><path d="M33 14.05c-.33 0-.66-.05-1-.05s-.67 0-1 .05V18h2zM31 50h2v-4h-2zM14.05 33H18v-2h-3.95c0 .33-.05.66-.05 1s0 .67.05 1zM46 33h4v-2h-4zm-2-14.4l-2.7 2.69 1.42 1.42L45.4 20a18.76 18.76 0 00-1.4-1.4zM18.6 20l2.69 2.7 1.42-1.42L20 18.6a18.76 18.76 0 00-1.4 1.4zm26.8 24l-2.69-2.7-1.42 1.42L44 45.4a18.76 18.76 0 001.4-1.4zm-26.8 0a18.76 18.76 0 001.4 1.4l2.7-2.69-1.42-1.42zm20.11-6.71L33 31.59V20h-2v12a1 1 0 00.29.71l6 6z" fill="#88929f"/></g></svg>