<svg height="512" width="512" xmlns="http://www.w3.org/2000/svg"><circle cx="319.528" cy="256" fill="#95d6a4" r="184.972"/><path d="M319.528 71.029c-4.682 0-9.322.178-13.917.52C401.267 78.664 476.666 158.525 476.666 256s-75.399 177.336-171.055 184.452c4.595.342 9.235.52 13.917.52C421.685 440.971 504.5 358.157 504.5 256S421.685 71.029 319.528 71.029z" fill="#78c2a4"/><circle cx="319.528" cy="256" fill="#f4fbff" r="142.033"/><path d="M319.528 113.967c-4.321 0-8.594.204-12.817.582 72.435 6.48 129.215 67.33 129.215 141.451s-56.78 134.97-129.215 141.451c4.223.377 8.496.582 12.817.582 78.443 0 142.033-63.59 142.033-142.032 0-78.444-63.59-142.034-142.033-142.034z" fill="#daf1f4"/><path d="M38.872 149.21h79.098c4.142 0 7.5-3.357 7.5-7.5s-3.358-7.5-7.5-7.5H38.872c-4.142 0-7.5 3.357-7.5 7.5s3.357 7.5 7.5 7.5zm76.386 36.107H84.012c-4.142 0-7.5 3.357-7.5 7.5s3.358 7.5 7.5 7.5h31.246c4.142 0 7.5-3.357 7.5-7.5s-3.358-7.5-7.5-7.5zM7.5 237.327h76.512c4.142 0 7.5-3.357 7.5-7.5s-3.358-7.5-7.5-7.5H7.5c-4.142 0-7.5 3.357-7.5 7.5s3.358 7.5 7.5 7.5zm117.97 132.962a7.5 7.5 0 00-7.5-7.5H38.872c-4.142 0-7.5 3.357-7.5 7.5s3.358 7.5 7.5 7.5h79.098a7.5 7.5 0 007.5-7.5zm-10.212-58.606H84.012c-4.142 0-7.5 3.357-7.5 7.5s3.358 7.5 7.5 7.5h31.246c4.142 0 7.5-3.357 7.5-7.5s-3.358-7.5-7.5-7.5zm-23.746-29.51a7.5 7.5 0 00-7.5-7.5H7.5c-4.142 0-7.5 3.357-7.5 7.5s3.358 7.5 7.5 7.5h76.512a7.5 7.5 0 007.5-7.5zM319.529 165.83c4.143 0 7.5-3.357 7.5-7.5v-11.448c0-4.143-3.357-7.5-7.5-7.5s-7.5 3.357-7.5 7.5v11.448c0 4.143 3.357 7.5 7.5 7.5zm82.461 7.708a7.502 7.502 0 00-10.607 0l-8.095 8.095a7.5 7.5 0 0010.607 10.607l8.095-8.095a7.502 7.502 0 000-10.607zm15.209 74.962c-4.143 0-7.5 3.357-7.5 7.5s3.357 7.5 7.5 7.5h11.447c4.143 0 7.5-3.357 7.5-7.5s-3.357-7.5-7.5-7.5zm-23.304 71.259a7.5 7.5 0 00-10.607 10.607l8.095 8.095a7.501 7.501 0 0010.607-10.607zm-81.866 33.911v11.447c0 4.143 3.357 7.5 7.5 7.5s7.5-3.357 7.5-7.5V353.67c0-4.143-3.357-7.5-7.5-7.5s-7.5 3.358-7.5 7.5zm-66.867-33.911l-8.095 8.095a7.5 7.5 0 0010.606 10.607l8.095-8.095a7.5 7.5 0 00-10.606-10.607zM210.411 248.5c-4.142 0-7.5 3.357-7.5 7.5s3.358 7.5 7.5 7.5h11.448c4.142 0 7.5-3.357 7.5-7.5s-3.358-7.5-7.5-7.5zm45.358-66.867l-8.095-8.095a7.501 7.501 0 00-10.606 10.607l8.095 8.095a7.5 7.5 0 0010.606-10.607zM359.859 256c0-4.143-3.357-7.5-7.5-7.5h-25.33v-55.684c0-4.143-3.357-7.5-7.5-7.5s-7.5 3.357-7.5 7.5V256c0 4.143 3.357 7.5 7.5 7.5h32.83a7.5 7.5 0 007.5-7.5z"/><path d="M461.741 254.762a7.5 7.5 0 007.032-7.94c-4.771-78.703-70.327-140.354-149.245-140.354-82.452 0-149.532 67.08-149.532 149.533 0 82.452 67.08 149.532 149.532 149.532 73.869 0 136.9-54.122 147.865-127.157a7.5 7.5 0 10-14.834-2.226c-9.85 65.614-66.506 114.384-133.031 114.384-74.181 0-134.532-60.351-134.532-134.532s60.351-134.533 134.532-134.533c71.001 0 129.98 55.461 134.272 126.263.25 4.132 3.802 7.27 7.941 7.03z"/><path d="M319.528 63.529c-26.381 0-52.228 5.473-76.018 15.708H111.181c-4.142 0-7.5 3.357-7.5 7.5s3.358 7.5 7.5 7.5h104.113a192.265 192.265 0 00-38.462 32.604 7.5 7.5 0 0011.118 10.069c33.602-37.102 81.561-58.381 131.578-58.381C417.386 78.529 497 158.142 497 256c0 97.857-79.613 177.471-177.472 177.471-97.858 0-177.471-79.613-177.471-177.471 0-34.268 9.789-67.528 28.307-96.186a7.5 7.5 0 00-12.599-8.14c-20.09 31.088-30.708 67.163-30.708 104.326 0 67.766 35.206 127.458 88.285 161.763h-104.16c-4.142 0-7.5 3.357-7.5 7.5s3.358 7.5 7.5 7.5h132.225c23.36 10.099 49.097 15.708 76.122 15.708C425.657 448.471 512 362.129 512 256S425.657 63.529 319.528 63.529z"/></svg>