<svg height="512" viewBox="0 0 64 64" width="512" xmlns="http://www.w3.org/2000/svg"><path d="M6.328 18.818L39.75 12.63l5.824 31.456-33.422 6.188z" fill="#90622a"/><path d="M12.743 9.5l-6.41 9.323 12.782-2.367 20.649-3.823 6.41-9.323z" fill="#875c27"/><path d="M46.174 3.31l-6.41 9.323 5.826 31.465L52 34.775z" fill="#7a5324"/><path d="M19.109 16.452l7.864-1.456 2.366 12.78-7.864 1.455z" fill="#fca947"/><path d="M26.982 14.999l-7.867 1.457 6.41-9.323 7.867-1.456z" fill="#fca947"/><g fill="#7a5324"><path d="M32.674 31.609l1.824.332a2.658 2.658 0 01-.965-2.605 2.67 2.67 0 012.84-2.137L46 28l-3.828-5.359a2.38 2.38 0 011.038-3.584l-.534-.468a2.38 2.38 0 00-3.504 3.174L43 27.123l-9.627-.802a2.67 2.67 0 00-.699 5.288zm4.862 12.239L44 39l-6.023 1.39-3.441 2.58a2.301 2.301 0 00-.434 3.254l2.523-.467a2.294 2.294 0 01.911-1.909zm-7.047-4.402a2.53 2.53 0 011.95-2.969L44 34l-3.838-.698L29.439 35.6a2.529 2.529 0 101.099 4.937l.398-.092a2.502 2.502 0 01-.447-.999z"/><path d="M18 40l9.627-.802a2.665 2.665 0 012.641 1.549 2.813 2.813 0 00.933-2.684 2.825 2.825 0 00-3.004-2.261l-7.652.638zm3.574-8.426c.013.013.022.028.034.041l.453-.635a2.518 2.518 0 00-3.706-3.358l-6.69 5.854-2.83-1.132.678 3.661L12 37l6.324-5.534a2.38 2.38 0 013.25.108zm10.783 14.043l-4.706-1.008L20 46l7.1 1.521 6.546-1.212a2.651 2.651 0 00-1.289-.692z"/></g><path d="M9 9H7c0-3.859 3.14-7 7-7h1v2h-1c-2.757 0-5 2.243-5 5zm43 53h-1v-2h1c2.757 0 5-2.243 5-5h2c0 3.859-3.14 7-7 7z" fill="#fca947"/><path d="M49 59h-1v-2h1c2.757 0 5-2.243 5-5h2c0 3.859-3.14 7-7 7z" fill="#fca947"/><path d="M2 33l10 4 6.324-5.534a2.38 2.38 0 013.504 3.174L18 40l9.627-.802a2.67 2.67 0 01.699 5.288L20 46l11.561 2.477a2.529 2.529 0 11-1.099 4.937L20 51l6.464 4.848a2.301 2.301 0 01-2.616 3.782L15 54l2 4a2.236 2.236 0 11-4 2L8 50l-6-3m60-26l-10 4-6.324-5.534a2.38 2.38 0 00-3.504 3.174L46 28l-9.627-.802a2.67 2.67 0 00-.699 5.288L44 34l-11.561 2.477a2.529 2.529 0 101.099 4.937L44 39l-6.464 4.848a2.301 2.301 0 002.616 3.782L49 42l-1.544 5.405a1.733 1.733 0 003.216 1.251L56 38l6-3" fill="#fee6d5"/></svg>