<svg height="512" viewBox="0 0 50 61" width="512" xmlns="http://www.w3.org/2000/svg"><g fill="none"><path d="M45.67 38.86v.01c-.36 1.99-2.08 9.73-8.65 19.08 0 0-2.18 1.09-12 1.09s-12-1.09-12-1.09C6.45 48.6 4.73 40.86 4.37 38.87l.01-.01c.407.285.838.533 1.29.74 3.55 1.59 8.69 1.66 11.55-1.34l.25-.28a1.07 1.07 0 011.76.17 6.329 6.329 0 005.75 3.48h.04a6.329 6.329 0 005.75-3.48 1.07 1.07 0 011.76-.17l.25.28c2.86 3 8 2.93 11.55 1.34a8.552 8.552 0 001.32-.76z" fill="#ffeb3a"/><path d="M45.65 38.84a8.552 8.552 0 01-1.32.76c-.633.28-1.289.506-1.96.675a52.669 52.669 0 01-8.35 17.675s-1.964.975-10.5 1.079c.482.006.975.011 1.5.011 9.82 0 12-1.09 12-1.09 6.57-9.35 8.29-17.09 8.65-19.08v-.01z" fill="#fdd834"/><path d="M45.65 38.84a8.552 8.552 0 01-1.32.76c-3.55 1.59-8.69 1.66-11.55-1.34l-.25-.28a1.07 1.07 0 00-1.76.17 6.329 6.329 0 01-5.75 3.48h-.04a6.329 6.329 0 01-5.75-3.48 1.07 1.07 0 00-1.76-.17l-.25.28c-2.86 3-8 2.93-11.55 1.34a8.156 8.156 0 01-1.29-.74A8.33 8.33 0 011 30.98a16.536 16.536 0 012.82-7.37c.34.256.755.393 1.18.39a2 2 0 001.35-3.47 28.506 28.506 0 017.89-5.58 2 2 0 003.69-1.48 31.182 31.182 0 015.11-1.22c1.298-.21 2.622-.21 3.92 0 1.092.163 2.173.386 3.24.67l-3.11 5.53c.43.33.89.66 1.37 1a38.107 38.107 0 003.59 2.29l6.7-5.13a26.439 26.439 0 014.9 3.92A2 2 0 0045 24a1.94 1.94 0 001.18-.39A16.536 16.536 0 0149 30.98a8.336 8.336 0 01-3.35 7.86z" fill="sienna"/><path d="M49 30.98a16.536 16.536 0 00-2.82-7.37A1.94 1.94 0 0145 24a2 2 0 01-1.35-3.47 26.439 26.439 0 00-4.9-3.92l-1.411 1.081c1.183.85 2.29 1.8 3.311 2.839A2 2 0 0042 24a1.94 1.94 0 001.18-.39A16.536 16.536 0 0146 30.98a8.336 8.336 0 01-3.35 7.86 8.552 8.552 0 01-1.32.76 12.689 12.689 0 01-3.6.988 12.69 12.69 0 006.6-.988 8.552 8.552 0 001.32-.76A8.336 8.336 0 0049 30.98z" fill="#783e22"/><path d="M7 22a2.006 2.006 0 01-2 2 1.944 1.944 0 01-1.18-.39A1.979 1.979 0 013 22a2.006 2.006 0 012-2c.501-.002.984.188 1.35.53A2 2 0 017 22z" fill="#02a9f4"/><circle cx="9" cy="33" fill="#ffdc00" r="2"/><circle cx="16" cy="25" fill="#ef314c" r="2"/><path d="M18 14a2 2 0 11-4 0 2 2 0 013.92-.53h.01c.048.172.072.35.07.53z" fill="#ffdc00"/><circle cx="25" cy="33" fill="#ffdc00" r="2"/><circle cx="34" cy="30" fill="#02a9f4" r="2"/><circle cx="42" cy="32" fill="#ef314c" r="2"/><path d="M47 22a1.979 1.979 0 01-.82 1.61A1.94 1.94 0 0145 24a2 2 0 010-4 2.006 2.006 0 012 2z" fill="#02a9f4"/><path d="M39.81 3.98l-5.73 10.21h-.01l-.94 1.68-4.67 3.58c-.48-.34-.94-.67-1.37-1l3.11-5.53 6.12-10.9a2.001 2.001 0 013.49 1.96z" fill="#ffe0b2"/><path d="M45.22 11.64l-6.47 4.97-6.7 5.13a38.107 38.107 0 01-3.59-2.29l4.67-3.58 9.65-7.4a2 2 0 012.44 3.17z" fill="#ffe0b2"/><path d="M24 16s1.29 1.11 3.09 2.45M35 23a13.155 13.155 0 01-2.95-1.26" fill="#ffdc00"/><g fill="#000"><path d="M3.453 39.419C3.97 42.025 5.91 49.578 12.2 58.526c.096.136.223.246.372.321.245.122 2.676 1.193 12.448 1.193s12.2-1.071 12.447-1.193a1.01 1.01 0 00.372-.321c6.313-8.984 8.243-16.56 8.751-19.136a9.331 9.331 0 003.405-8.524 17.253 17.253 0 00-2.552-7.135A2.97 2.97 0 0048 22a3 3 0 00-3-3 2.968 2.968 0 00-1.221.266 27.036 27.036 0 00-3.318-2.716l5.369-4.118a3 3 0 00-3.658-4.756L36.4 12.1l4.281-7.63A3 3 0 0039.54.388a3.022 3.022 0 00-4.092 1.142l-5.755 10.244a29.833 29.833 0 00-2.574-.511 13.255 13.255 0 00-4.226 0 31.821 31.821 0 00-4.452 1.007A2.994 2.994 0 0013 14c.004.153.019.305.046.455a29.56 29.56 0 00-6.81 4.819A2.973 2.973 0 005 19a3 3 0 00-3 3c0 .621.196 1.227.559 1.731a17.267 17.267 0 00-2.553 7.137 9.326 9.326 0 003.447 8.551zm32.924 17.705c-.744.236-3.567.916-11.359.916-7.833 0-10.645-.687-11.358-.913a52.437 52.437 0 01-7.847-16.388c3.861 1.511 9.1 1.389 12.153-1.814l.25-.279c.009-.01.13-.006.138-.016a7.521 7.521 0 0013.292 0l.137.016.273.3c3.038 3.188 8.3 3.3 12.17 1.772a52.391 52.391 0 01-7.849 16.406zM46 22a1 1 0 11-2 0 1 1 0 012 0zM43.386 9.265a1 1 0 111.225 1.582L31.97 20.541a36.27 36.27 0 01-1.809-1.135l3.58-2.745h.005zm-6.2-6.748a1.014 1.014 0 011.372-.386 1 1 0 01.378 1.36l-5.668 10.1a1.063 1.063 0 00-.073.111l-.839 1.5-3.913 3-.048-.035zM16 13a1 1 0 110 2 1 1 0 010-2zM5 21a1 1 0 110 2 1 1 0 010-2zM1.993 31.094A15.259 15.259 0 014.2 24.878a2.974 2.974 0 003.474-4.212 27.563 27.563 0 016.321-4.451 2.977 2.977 0 004.985-2 29.958 29.958 0 014.22-.974 11.329 11.329 0 013.615 0c.607.089 1.231.211 1.86.348l-1.895 3.37c-1.261-.975-2.117-1.708-2.128-1.717a1 1 0 10-1.3 1.516 62.97 62.97 0 003.133 2.486c.439.337.911.674 1.4 1.022a38.968 38.968 0 003.689 2.352l.044.023c.989.57 2.044 1.017 3.142 1.329a1 1 0 00.482-1.94c-.45-.12-.89-.278-1.313-.471l4.855-3.724a25.546 25.546 0 013.55 2.816c-.217.417-.331.88-.334 1.349a2.959 2.959 0 003.8 2.878 15.244 15.244 0 012.2 6.214 7.239 7.239 0 01-4.085 7.6c-3.176 1.423-7.907 1.515-10.395-1.094l-.225-.252a2.071 2.071 0 00-3.408.327 5.523 5.523 0 01-9.785 0 2.07 2.07 0 00-3.384-.356l-.228.256c-2.511 2.633-7.239 2.54-10.412 1.12a7.24 7.24 0 01-4.085-7.599z"/><path d="M13.965 44.577a1.001 1.001 0 00-1.9.634c.091.272 2.251 6.694 4.482 10.032a1 1 0 101.662-1.111c-2.078-3.114-4.223-9.49-4.244-9.555zm7.78.405a1 1 0 00-1 1V53.6a1 1 0 002 0v-7.618a1 1 0 00-1-1zm15.591-1.036a1 1 0 00-1.266.632c-.021.064-2.165 6.44-4.247 9.554a1 1 0 101.662 1.111c2.232-3.338 4.391-9.76 4.482-10.032a1 1 0 00-.631-1.265zm-9.045 1.036a1 1 0 00-1 1V53.6a1 1 0 002 0v-7.618a1 1 0 00-1-1zM9 36a3 3 0 100-6 3 3 0 000 6zm0-4a1 1 0 110 2 1 1 0 010-2zm7-4a3 3 0 100-6 3 3 0 000 6zm0-4a1 1 0 110 2 1 1 0 010-2zm9 12a3 3 0 100-6 3 3 0 000 6zm0-4a1 1 0 110 2 1 1 0 010-2zm9 1a3 3 0 100-6 3 3 0 000 6zm0-4a1 1 0 110 2 1 1 0 010-2zm8 6a3 3 0 100-6 3 3 0 000 6zm0-4a1 1 0 110 2 1 1 0 010-2z"/></g></g></svg>