<svg xmlns="http://www.w3.org/2000/svg" width="70" height="70"><defs><clipPath id="a"><path fill="#fff" d="M34 0h2v9h-2zm0 61h2v9h-2zM0 36v-2h9v2zm61 0v-2h9v2z"/></clipPath><clipPath id="b"><path fill="#fff" d="M17 36v-2h17V11h2v25z"/></clipPath><clipPath id="c"><path fill="#fff" d="M35.021 31.5a3.5 3.5 0 110 7 3.5 3.5 0 010-7z"/></clipPath></defs><path fill="#030303" d="M34 0h2v9h-2zm0 61h2v9h-2zM0 36v-2h9v2zm61 0v-2h9v2z"/><path fill="none" stroke="#fff" stroke-miterlimit="20" stroke-width="6" d="M34 0h2v9h-2zm0 61h2v9h-2zM0 36v-2h9v2zm61 0v-2h9v2z" clip-path="url(&quot;#a&quot;)"/><path fill="#030303" d="M17 36v-2h17V11h2v25z"/><path fill="none" stroke="#fff" stroke-miterlimit="20" stroke-width="6" d="M17 36v-2h17V11h2v25z" clip-path="url(&quot;#b&quot;)"/><path fill="#030303" d="M35.021 31.5a3.5 3.5 0 110 7 3.5 3.5 0 010-7z"/><path fill="none" stroke="#fff" stroke-miterlimit="20" stroke-width="6" d="M35.021 31.5a3.5 3.5 0 110 7 3.5 3.5 0 010-7z" clip-path="url(&quot;#c&quot;)"/></svg>